#!OML:ASF F:\VICON\USERDATA\INSTALL\rory3\rory3.ASF
:FULLY-SPECIFIED
:DEGREES
1033
root 3.08349 17.8667 -10.2007 358.068 -1.01531 359.342
lowerback 11.825 -1.68279 -3.24235
upperback -0.529021 -2.54215 2.17582
thorax -6.96343 -1.08338 4.58505
lowerneck -19.229 -12.3646 -16.2249
upperneck 18.6517 -16.9955 17.7046
head 12.4338 -7.03363 6.19557
rclavicle -2.32578e-014 5.96354e-015
rhumerus -37.396 -28.9066 -65.3491
rradius 17.2922
rwrist 23.5744
rhand -15.4563 4.84502
rfingers 7.12502
rthumb 10.7246 -24.8612
lclavicle -2.32578e-014 5.96354e-015
lhumerus -27.4567 2.26812 74.8551
lradius 31.9048
lwrist 1.20388
lhand -22.5114 29.7604
lfingers 7.12502
lthumb 3.91495 59.7042
rfemur -12.1144 -13.7289 22.5001
rtibia 30.6437
rfoot -13.6058 -10.5955
rtoes 8.75689
lfemur 0.929171 7.35505 -13.9604
ltibia 22.0068
lfoot -15.5829 33.8034
ltoes 29.9598
1034
root 3.02192 17.8619 -10.177 357.962 -1.58908 359.092
lowerback 11.8501 -1.72751 -2.89823
upperback -0.406364 -2.54983 2.22851
thorax -6.85772 -1.10365 4.44391
lowerneck -19.5619 -12.3547 -16.0337
upperneck 18.7998 -16.9608 17.5144
head 12.5058 -7.00168 6.0909
rclavicle -1.11444e-014 7.95139e-016
rhumerus -37.3624 -28.7819 -65.4617
rradius 17.2955
rwrist 23.6379
rhand -15.0719 5.33398
rfingers 7.12502
rthumb 11.0954 -24.3527
lclavicle -1.11444e-014 7.95139e-016
lhumerus -27.2798 1.8665 75.1825
lradius 32.5126
lwrist 0.978089
lhand -22.8671 30.3479
lfingers 7.12502
lthumb 3.57145 60.2977
rfemur -11.8307 -13.4944 23.0046
rtibia 30.4497
rfoot -13.61 -10.3885
rtoes 8.24794
lfemur 1.00744 7.48274 -13.4363
ltibia 22.4256
lfoot -14.7898 32.8095
ltoes 28.5458
1035
root 2.96246 17.8598 -10.1534 357.907 -2.26124 358.921
lowerback 11.786 -1.75472 -2.63405
upperback -0.327922 -2.54587 2.25886
thorax -6.7478 -1.11481 4.31954
lowerneck -19.6897 -12.2398 -15.8515
upperneck 18.9097 -16.8192 17.4061
head 12.5137 -6.92823 6.0511
rclavicle 1.2424e-016 8.74653e-015
rhumerus -37.3171 -28.3856 -65.7491
rradius 17.3848
rwrist 23.3475
rhand -14.8646 5.33036
rfingers 7.12502
rthumb 11.2954 -24.3455
lclavicle 1.2424e-016 8.74653e-015
lhumerus -27.2582 1.76191 75.4226
lradius 33.1657
lwrist 0.665066
lhand -23.09 30.7692
lfingers 7.12502
lthumb 3.3562 60.7225
rfemur -11.6156 -13.3621 23.4139
rtibia 30.2794
rfoot -13.6263 -9.96597
rtoes 7.79489
lfemur 1.04254 7.51226 -13.0371
ltibia 22.8901
lfoot -14.1729 31.326
ltoes 27.0985
1036
root 2.90572 17.8572 -10.1343 357.895 -2.98859 358.811
lowerback 11.7804 -1.74783 -2.45731
upperback -0.33086 -2.50843 2.31383
thorax -6.75611 -1.10146 4.27142
lowerneck -19.6969 -12.1062 -15.8681
upperneck 19.0405 -16.6566 17.454
head 12.5419 -6.85056 6.11539
rclavicle 5.14355e-015 2.22639e-014
rhumerus -37.2726 -27.5885 -66.1094
rradius 17.54
rwrist 22.6236
rhand -14.7373 5.36053
rfingers 7.12502
rthumb 11.4181 -24.3086
lclavicle 5.14355e-015 2.22639e-014
lhumerus -27.3609 1.61471 75.7382
lradius 33.8522
lwrist 0.49697
lhand -23.291 30.0894
lfingers 7.12502
lthumb 3.16203 60.0457
rfemur -11.4567 -13.2137 23.7448
rtibia 30.146
rfoot -13.7729 -9.42952
rtoes 7.99272
lfemur 0.98366 7.40096 -12.7536
ltibia 23.4009
lfoot -13.5227 29.5453
ltoes 25.5453
1037
root 2.85135 17.8516 -10.1186 357.889 -3.69288 358.672
lowerback 11.8523 -1.72884 -2.2889
upperback -0.393067 -2.45473 2.39881
thorax -6.87122 -1.07573 4.26331
lowerneck -19.4982 -11.9767 -15.9513
upperneck 19.0684 -16.4979 17.524
head 12.4992 -6.79131 6.20134
rclavicle -3.31846e-014 3.97569e-015
rhumerus -37.3305 -26.5817 -66.4956
rradius 17.8347
rwrist 21.6825
rhand -14.6831 5.18182
rfingers 7.12502
rthumb 11.4704 -24.4844
lclavicle -3.31846e-014 3.97569e-015
lhumerus -27.524 1.38168 76.1316
lradius 34.5186
lwrist 0.408066
lhand -23.4518 28.598
lfingers 7.12502
lthumb 3.00677 58.5566
rfemur -11.3228 -12.9784 24.1002
rtibia 30.0196
rfoot -13.8773 -8.97763
rtoes 8.60995
lfemur 0.830439 7.20923 -12.4563
ltibia 23.9703
lfoot -12.8963 27.6379
ltoes 23.7075
1038
root 2.79834 17.8413 -10.0986 357.82 -4.42999 358.599
lowerback 11.9139 -1.69155 -2.23113
upperback -0.438365 -2.3917 2.48511
thorax -6.95868 -1.04258 4.31661
lowerneck -19.2162 -11.8321 -15.9137
upperneck 19.1259 -16.3129 17.3924
head 12.4092 -6.73623 6.19641
rclavicle -4.19933e-015 1.59028e-015
rhumerus -37.39 -25.6136 -66.8343
rradius 18.1383
rwrist 20.8626
rhand -14.6872 4.70332
rfingers 7.12502
rthumb 11.4664 -24.9631
lclavicle -4.19933e-015 1.59028e-015
lhumerus -27.6738 1.20309 76.5221
lradius 35.0949
lwrist 0.316914
lhand -23.3224 27.3631
lfingers 7.12502
lthumb 3.1317 57.3199
rfemur -11.136 -12.8689 24.3598
rtibia 29.884
rfoot -13.837 -8.50638
rtoes 8.20507
lfemur 0.714632 7.1378 -12.2344
ltibia 24.6124
lfoot -12.0019 25.7771
ltoes 20.2512
